<?xml version="1.0" encoding="UTF-8"?>
<svg version="1.1" viewBox="0 0 2048 2048" width="4724" height="4724" xmlns="http://www.w3.org/2000/svg">
<path transform="translate(642,253)" d="m0 0h844l18 3 18 5 21 9 16 9 17 12 13 11 14 13 7 8 11 13 13 18 12 20 12 23 10 23 10 30 6 24 5 28 3 29v56l-3 31-5 30-8 32-8 24-10 24-12 24-13 21-12 16-9 11-12 13-14 13-13 10-15 10-21 11-25 9-17 4-15 2h-43l10 23 18 43 19 45 18 43 19 45 18 43 19 45 18 43 19 45 19 46v3h-227l-4-6-15-36-38-90-18-43-19-45-18-43-38-90-18-43-11-26-628-1 1-6 12-26 10-20 10-19 14-27 12-22 17-32 13-23 15-28 12-21 15-26 13-21 1-1 738-1 11-2 9-6 6-9 3-9 1-5v-14l-4-13-7-10-10-6-11-1-1126-1 3-10 7-16 10-21 12-22 15-25 15-22 12-16 13-16 11-12 7-8 14-14 8-7 14-12 19-14 19-12 18-10 25-12 25-9 24-7 19-4z" fill="#1E6096"/>
<path transform="translate(311,605)" d="m0 0h219l-8 16-9 17-8 19-10 30-6 27-4 29-1 14v36l3 30 4 23 6 24 9 26 8 18 12 23 10 15 10 13 11 12 12 12 17 13 19 11 17 7 17 5 18 3 14 1h204l12-1v-75h193v338l-9 2h-429l-26-3-23-5-27-9-25-11-22-12-24-16-16-12-11-9-38-38-9-11-12-14-14-19-10-15-13-21-16-29-12-25-13-32-9-25-10-34-8-34-7-38-4-32-2-25-1-20v-52l2-35 4-37 7-41 7-31z" fill="#FAA71B"/>
<path transform="translate(1788,1471)" d="m0 0h17l28 1 4 8 4 14 6 24 7 21 13 55 4 13 3 4 6-1 16-30 12-22 11-22 8-13 11-22 9-16 6-9 4-5h44l1 1v7l-15 29-10 19-12 23-12 22-9 17-8 16-16 31-12 22-15 29-13 23-10 14-9 10-9 9-18 12-16 8-12 4-13 2h-1713l-3-2v-8l8-46 3-4 3-1h1678l24-1 12-3 10-5 12-11 3-3 1-3v-11l-13-54-11-51-10-40-9-41-3-7v-5z" fill="#1E6096"/>
<path transform="translate(264,1377)" d="m0 0 55 1 26 3 22 5 12 5 9 7 7 8 7 14 2 7 1 11v11l-1 19-3 5-3 2h-53l-3-3-3-12-4-6-8-4-5-1-18-1h-83l-18 3-10 4-9 8-6 11-5 15-6 28-4 36v34l4 11 5 5 7 5 11 3 8 1h96l13-4 11-6 5-7 5-16 1-6v-11l-3-2-79-1-3-4 1-14 5-34 3-7 3-2h142l3 3 1 6-9 64-6 31-6 20-6 14-7 11-9 10-8 7-15 8-20 6-12 2-12 1h-115l-17-3-15-5-11-6-9-7-9-9-8-14-4-10-4-19v-35l3-35 5-37 6-31 6-22 6-15 7-14 9-12 10-10 11-7 14-6 21-5 10-1z" fill="#FAA71B"/>
<path transform="translate(1725,1386)" d="m0 0h47l1 2v15l-12 84-8 65-10 66-7 52-3 6-3 2h-42l-7-2-2-4 1-11-1-2-5 1-8 7-10 5-16 4-31 2h-31l-15-3-16-7-11-8-8-9-8-16-4-11-1-5v-33l2-24 4-25 5-17 7-12 7-10 7-8 9-7 17-8 13-4 5-1h75l12 4 10 6 9 10 5 3 3-1 3-15 3-20 8-45 2-19 2-6zm-105 131-16 3-12 5-7 6-7 11-4 12-5 35 1 12 5 13 4 5 11 5 13 3 12 1h24l18-2 11-4 8-6 7-8 5-10 3-10 4-24v-15l-4-11-5-9-5-4-11-5-12-3z" fill="#1F6096"/>
<path transform="translate(515,1464)" d="m0 0h32l24 3 16 4 16 8 10 9 7 9 6 13 2 7 1 8v14l-2 23-4 23-2 4-2 1-160 1-3 2-1 3v16l4 8 5 4 11 4h69l9-3 5-4 6-9 5-3h45l4 3v10l-4 16-8 16-10 11-11 7-14 5-14 3-19 2h-52l-26-2-15-3-13-5-10-7-9-9-8-14-4-12-2-12v-25l3-23 5-29 5-20 6-14 9-13 9-9 10-7 12-6 13-4 12-2zm5 52-26 1-16 4-6 4-8 9-2 4v9l4 2h102l4-4v-8l-3-8-6-7-7-3-33-3z" fill="#FAA71B"/>
<path transform="translate(820,1385)" d="m0 0h139l20 2 15 4 13 7 11 9 7 10 6 13 4 14 2 13v25l-4 34-4 14-7 14-9 11-1 9 3 5 4 7 2 9v24l-3 27-5 33-3 7-3 2h-47l-3-3v-9l5-36v-15l-3-10-6-8-6-5-8-2-33-1-7-3-14-41-5-14v-7l3-2 74-1 10-4 8-7 5-8 3-11v-13l-3-12-5-9-6-5-6-2h-128l-5 3-2 5-1 39-1 3-3-1-6-16-6-19-8-30-11-33-2-8v-6l1-1z" fill="#1E6096"/>
<path transform="translate(1352,1471)" d="m0 0h99l17 5 16 8 8 8 7 14 2 10v18l-7 58-10 74-2 9-4 3h-36l-4-3-3-11-5 1-8 6-11 4-15 2-29 1h-48l-17-3-12-5-10-8-6-10-2-8v-33l3-16 5-14 8-15 7-6 12-7 11-4 20-3 47-1 34 2 17 3 9 6 3 3 4-1 3-9 1-7v-10l-2-9-4-6-5-4-11-4h-70l-18 5-8 9-4 2h-42l-2-1-1-4 4-14 7-11 9-9 7-5 21-8zm-5 117-9 3-7 6-4 8-1 3v12l4 8 8 5 6 1 67 1 15-2 9-6 6-9 1-3v-13l-4-8-5-4-3-1-45-1z" fill="#1F6196"/>
<path transform="translate(1130,1471)" d="m0 0h75l14 3 12 5 12 7 7 6 8 11 5 11 1 6-1 36-1 17-2 9-4 4-156 1-6 3-3 7v12l4 11 7 7 8 4 13 1h58l9-2 9-6 7-9 3-2h44l3 4-3 14-6 16-8 11-7 6-14 7-9 3-25 3-32 2h-34l-18-2-19-5-15-8-10-9-6-7-5-12-3-10v-39l4-25 3-19 7-21 6-14 8-11 8-8 9-6 20-8 10-3zm25 41-34 2-9 4-8 8-6 13-1 7 3 5 4 2h41l44-1 1 2 15-1 7-2 3-5v-11l-6-12-8-7-8-3-6-1z" fill="#1F6096"/>
<path transform="translate(665,1423)" d="m0 0h45l5 3 1 1v13l-3 16v6l2 3 61 1 5 4 14 41 1 5v9l-2 3-90 1-3 14-8 55 1 11 4 8 7 6 9 3 6 1h11l18-1 13-4 6-4 4-5 5-13 3-7 2-2h54l4 4v10l-6 22-5 12-7 12-11 12-9 7-10 5-14 4-22 2-35 1-22-1-21-3-13-5-9-6-8-7-9-14-5-13-2-10v-22l6-48 16-116 3-10 4-3z" fill="#FAA71B"/>
</svg>
